0
SECTION
2
HEADER
0
ENDSEC
0
SECTION
2
BLOCKS
0
BLOCK
2
Plane
8
Meshes
70
64
10
0.0
20
0.0
30
0.0
3
Plane
0
POLYLINE
66
1
8
Meshes
62
254
70
64
71
4
72
1
0
VERTEX
8
Meshes
10
0.000000
20
15.000000
30
0.000000
70
192
0
VERTEX
8
Meshes
10
0.000000
20
-1.000000
30
0.000000
70
192
0
VERTEX
8
Meshes
10
-146.000000
20
-1.000000
30
0.000000
70
192
0
VERTEX
8
Meshes
10
-146.000000
20
15.000000
30
0.000000
70
192
0
VERTEX
8
Meshes
62
254
10
0.0
20
0.0
30
0.0
70
128
71
1
72
4
73
3
74
2
0
SEQEND
0
ENDBLK
0
BLOCK
2
Plane_001
8
Meshes
70
64
10
0.0
20
0.0
30
0.0
3
Plane_001
0
POLYLINE
66
1
8
Meshes
62
254
70
64
71
4
72
1
0
VERTEX
8
Meshes
10
0.000000
20
15.000000
30
0.000000
70
192
0
VERTEX
8
Meshes
10
0.000000
20
5.000000
30
0.000000
70
192
0
VERTEX
8
Meshes
10
-146.000000
20
5.000000
30
0.000000
70
192
0
VERTEX
8
Meshes
10
-146.000000
20
15.000000
30
0.000000
70
192
0
VERTEX
8
Meshes
62
254
10
0.0
20
0.0
30
0.0
70
128
71
1
72
4
73
3
74
2
0
SEQEND
0
ENDBLK
0
BLOCK
2
Plane_002
8
Meshes
70
64
10
0.0
20
0.0
30
0.0
3
Plane_002
0
POLYLINE
66
1
8
Meshes
62
254
70
64
71
4
72
1
0
VERTEX
8
Meshes
10
3.000000
20
1.000000
30
0.000000
70
192
0
VERTEX
8
Meshes
10
3.000000
20
-5.000000
30
0.000000
70
192
0
VERTEX
8
Meshes
10
-1.000000
20
-5.000000
30
0.000000
70
192
0
VERTEX
8
Meshes
10
-1.000000
20
1.000000
30
0.000000
70
192
0
VERTEX
8
Meshes
62
254
10
0.0
20
0.0
30
0.0
70
128
71
1
72
4
73
3
74
2
0
SEQEND
0
ENDBLK
0
BLOCK
2
Plane_004
8
Meshes
70
64
10
0.0
20
0.0
30
0.0
3
Plane_004
0
POLYLINE
66
1
8
Meshes
62
254
70
64
71
4
72
1
0
VERTEX
8
Meshes
10
18.009012
20
-0.503370
30
18.958757
70
192
0
VERTEX
8
Meshes
10
18.024321
20
2.496573
30
18.969244
70
192
0
VERTEX
8
Meshes
10
-6.531569
20
-0.308410
30
1.359993
70
192
0
VERTEX
8
Meshes
10
-6.525899
20
2.691326
30
1.320621
70
192
0
VERTEX
8
Meshes
62
254
10
0.0
20
0.0
30
0.0
70
128
71
1
72
2
73
4
74
3
0
SEQEND
0
ENDBLK
0
BLOCK
2
Plane_005
8
Meshes
70
64
10
0.0
20
0.0
30
0.0
3
Plane_005
0
POLYLINE
66
1
8
Meshes
62
254
70
64
71
4
72
1
0
VERTEX
8
Meshes
10
-1.000000
20
16.000000
30
0.000000
70
192
0
VERTEX
8
Meshes
10
-1.000000
20
4.000000
30
0.000000
70
192
0
VERTEX
8
Meshes
10
-5.000000
20
4.000000
30
0.000000
70
192
0
VERTEX
8
Meshes
10
-5.000000
20
16.000000
30
0.000000
70
192
0
VERTEX
8
Meshes
62
254
10
0.0
20
0.0
30
0.0
70
128
71
1
72
4
73
3
74
2
0
SEQEND
0
ENDBLK
0
BLOCK
2
Plane_008
8
Meshes
70
64
10
0.0
20
0.0
30
0.0
3
Plane_008
0
POLYLINE
66
1
8
Meshes
62
254
70
64
71
4
72
1
0
VERTEX
8
Meshes
10
18.009012
20
-0.503370
30
18.958757
70
192
0
VERTEX
8
Meshes
10
18.024321
20
2.496573
30
18.969244
70
192
0
VERTEX
8
Meshes
10
-6.531569
20
-0.308410
30
1.359993
70
192
0
VERTEX
8
Meshes
10
-6.525899
20
2.691326
30
1.320621
70
192
0
VERTEX
8
Meshes
62
254
10
0.0
20
0.0
30
0.0
70
128
71
1
72
2
73
4
74
3
0
SEQEND
0
ENDBLK
0
BLOCK
2
Plane_009
8
Meshes
70
64
10
0.0
20
0.0
30
0.0
3
Plane_009
0
POLYLINE
66
1
8
Meshes
62
254
70
64
71
4
72
1
0
VERTEX
8
Meshes
10
4.247178
20
-0.290246
30
10.156278
70
192
0
VERTEX
8
Meshes
10
4.326460
20
2.674495
30
10.142735
70
192
0
VERTEX
8
Meshes
10
-6.558778
20
-0.081941
30
1.322855
70
192
0
VERTEX
8
Meshes
10
-6.553108
20
2.917795
30
1.283483
70
192
0
VERTEX
8
Meshes
62
254
10
0.0
20
0.0
30
0.0
70
128
71
1
72
2
73
4
74
3
0
SEQEND
0
ENDBLK
0
BLOCK
2
Plane_010
8
Meshes
70
64
10
0.0
20
0.0
30
0.0
3
Plane_010
0
POLYLINE
66
1
8
Meshes
62
254
70
64
71
4
72
1
0
VERTEX
8
Meshes
10
4.262366
20
-0.343449
30
10.167321
70
192
0
VERTEX
8
Meshes
10
4.348992
20
2.703825
30
10.142635
70
192
0
VERTEX
8
Meshes
10
-6.380466
20
-0.064652
30
1.323757
70
192
0
VERTEX
8
Meshes
10
-6.305256
20
2.923945
30
1.296447
70
192
0
VERTEX
8
Meshes
62
254
10
0.0
20
0.0
30
0.0
70
128
71
1
72
2
73
4
74
3
0
SEQEND
0
ENDBLK
0
BLOCK
2
Plane_011
8
Meshes
70
64
10
0.0
20
0.0
30
0.0
3
Plane_011
0
POLYLINE
66
1
8
Meshes
62
254
70
64
71
4
72
1
0
VERTEX
8
Meshes
10
4.298351
20
-0.359993
30
10.158897
70
192
0
VERTEX
8
Meshes
10
4.462800
20
5.634615
30
10.111413
70
192
0
VERTEX
8
Meshes
10
-4.840526
20
-0.175635
30
2.505148
70
192
0
VERTEX
8
Meshes
10
-4.690288
20
5.809266
30
2.454637
70
192
0
VERTEX
8
Meshes
62
254
10
0.0
20
0.0
30
0.0
70
128
71
1
72
2
73
4
74
3
0
SEQEND
0
ENDBLK
0
BLOCK
2
Plane_012
8
Meshes
70
64
10
0.0
20
0.0
30
0.0
3
Plane_012
0
POLYLINE
66
1
8
Meshes
62
254
70
64
71
4
72
1
0
VERTEX
8
Meshes
10
1.000000
20
11.000000
30
0.000000
70
192
0
VERTEX
8
Meshes
10
1.000000
20
-1.000000
30
0.000000
70
192
0
VERTEX
8
Meshes
10
-5.000000
20
-1.000000
30
0.000000
70
192
0
VERTEX
8
Meshes
10
-5.000000
20
11.000000
30
0.000000
70
192
0
VERTEX
8
Meshes
62
254
10
0.0
20
0.0
30
0.0
70
128
71
1
72
4
73
3
74
2
0
SEQEND
0
ENDBLK
0
BLOCK
2
Plane_013
8
Meshes
70
64
10
0.0
20
0.0
30
0.0
3
Plane_013
0
POLYLINE
66
1
8
Meshes
62
254
70
64
71
4
72
1
0
VERTEX
8
Meshes
10
4.298351
20
-0.359993
30
10.158897
70
192
0
VERTEX
8
Meshes
10
4.462800
20
5.634615
30
10.111413
70
192
0
VERTEX
8
Meshes
10
-4.855837
20
-0.186176
30
2.505142
70
192
0
VERTEX
8
Meshes
10
-4.700828
20
5.824576
30
2.454455
70
192
0
VERTEX
8
Meshes
62
254
10
0.0
20
0.0
30
0.0
70
128
71
1
72
2
73
4
74
3
0
SEQEND
0
ENDBLK
0
BLOCK
2
Plane_014
8
Meshes
70
64
10
0.0
20
0.0
30
0.0
3
Plane_014
0
POLYLINE
66
1
8
Meshes
62
254
70
64
71
4
72
1
0
VERTEX
8
Meshes
10
1.000000
20
5.000000
30
0.000000
70
192
0
VERTEX
8
Meshes
10
1.000000
20
-1.000000
30
0.000000
70
192
0
VERTEX
8
Meshes
10
-1.000000
20
-1.000000
30
0.000000
70
192
0
VERTEX
8
Meshes
10
-1.000000
20
5.000000
30
0.000000
70
192
0
VERTEX
8
Meshes
62
254
10
0.0
20
0.0
30
0.0
70
128
71
1
72
4
73
3
74
2
0
SEQEND
0
ENDBLK
0
BLOCK
2
Plane_016
8
Meshes
70
64
10
0.0
20
0.0
30
0.0
3
Plane_016
0
POLYLINE
66
1
8
Meshes
62
254
70
64
71
4
72
1
0
VERTEX
8
Meshes
10
1.000000
20
19.000000
30
0.000000
70
192
0
VERTEX
8
Meshes
10
1.000000
20
-1.000000
30
0.000000
70
192
0
VERTEX
8
Meshes
10
-5.000000
20
-1.000000
30
0.000000
70
192
0
VERTEX
8
Meshes
10
-5.000000
20
19.000000
30
0.000000
70
192
0
VERTEX
8
Meshes
62
254
10
0.0
20
0.0
30
0.0
70
128
71
1
72
4
73
3
74
2
0
SEQEND
0
ENDBLK
0
BLOCK
2
Plane_018
8
Meshes
70
64
10
0.0
20
0.0
30
0.0
3
Plane_018
0
POLYLINE
66
1
8
Meshes
62
254
70
64
71
4
72
1
0
VERTEX
8
Meshes
10
4.309761
20
-0.359679
30
10.238414
70
192
0
VERTEX
8
Meshes
10
4.474209
20
5.634929
30
10.190929
70
192
0
VERTEX
8
Meshes
10
1.214767
20
-0.295338
30
7.699630
70
192
0
VERTEX
8
Meshes
10
1.365005
20
5.689563
30
7.649119
70
192
0
VERTEX
8
Meshes
62
254
10
0.0
20
0.0
30
0.0
70
128
71
1
72
2
73
4
74
3
0
SEQEND
0
ENDBLK
0
BLOCK
2
Plane_021
8
Meshes
70
64
10
0.0
20
0.0
30
0.0
3
Plane_021
0
POLYLINE
66
1
8
Meshes
62
254
70
64
71
4
72
1
0
VERTEX
8
Meshes
10
3.000000
20
1.000000
30
0.000000
70
192
0
VERTEX
8
Meshes
10
3.000000
20
-5.000000
30
0.000000
70
192
0
VERTEX
8
Meshes
10
-1.000000
20
-5.000000
30
0.000000
70
192
0
VERTEX
8
Meshes
10
-1.000000
20
1.000000
30
0.000000
70
192
0
VERTEX
8
Meshes
62
254
10
0.0
20
0.0
30
0.0
70
128
71
1
72
4
73
3
74
2
0
SEQEND
0
ENDBLK
0
BLOCK
2
Plane_022
8
Meshes
70
64
10
0.0
20
0.0
30
0.0
3
Plane_022
0
POLYLINE
66
1
8
Meshes
62
254
70
64
71
4
72
1
0
VERTEX
8
Meshes
10
5.000000
20
5.000000
30
0.000000
70
192
0
VERTEX
8
Meshes
10
5.000000
20
-1.000000
30
0.000000
70
192
0
VERTEX
8
Meshes
10
-1.000000
20
-1.000000
30
0.000000
70
192
0
VERTEX
8
Meshes
10
-1.000000
20
5.000000
30
0.000000
70
192
0
VERTEX
8
Meshes
62
254
10
0.0
20
0.0
30
0.0
70
128
71
1
72
4
73
3
74
2
0
SEQEND
0
ENDBLK
0
BLOCK
2
Plane_023
8
Meshes
70
64
10
0.0
20
0.0
30
0.0
3
Plane_023
0
POLYLINE
66
1
8
Meshes
62
254
70
64
71
4
72
1
0
VERTEX
8
Meshes
10
5.000000
20
3.000000
30
0.000000
70
192
0
VERTEX
8
Meshes
10
4.617134
20
-3.119546
30
0.000000
70
192
0
VERTEX
8
Meshes
10
-1.000000
20
-1.000000
30
0.000000
70
192
0
VERTEX
8
Meshes
10
-1.000000
20
3.000000
30
0.000000
70
192
0
VERTEX
8
Meshes
62
254
10
0.0
20
0.0
30
0.0
70
128
71
1
72
4
73
3
74
2
0
SEQEND
0
ENDBLK
0
BLOCK
2
Plane_025
8
Meshes
70
64
10
0.0
20
0.0
30
0.0
3
Plane_025
0
POLYLINE
66
1
8
Meshes
62
254
70
64
71
4
72
1
0
VERTEX
8
Meshes
10
4.371903
20
-0.414105
30
10.239205
70
192
0
VERTEX
8
Meshes
10
4.510472
20
6.189408
30
10.186767
70
192
0
VERTEX
8
Meshes
10
1.296110
20
-0.326878
30
7.700353
70
192
0
VERTEX
8
Meshes
10
1.446867
20
6.221844
30
7.645396
70
192
0
VERTEX
8
Meshes
62
254
10
0.0
20
0.0
30
0.0
70
128
71
1
72
2
73
4
74
3
0
SEQEND
0
ENDBLK
0
BLOCK
2
Plane_026
8
Meshes
70
64
10
0.0
20
0.0
30
0.0
3
Plane_026
0
POLYLINE
66
1
8
Meshes
62
254
70
64
71
4
72
1
0
VERTEX
8
Meshes
10
1.000000
20
1.000000
30
0.000000
70
192
0
VERTEX
8
Meshes
10
1.000000
20
-5.000000
30
0.000000
70
192
0
VERTEX
8
Meshes
10
-5.000000
20
-5.000000
30
0.000000
70
192
0
VERTEX
8
Meshes
10
-5.000000
20
1.000000
30
0.000000
70
192
0
VERTEX
8
Meshes
62
254
10
0.0
20
0.0
30
0.0
70
128
71
1
72
4
73
3
74
2
0
SEQEND
0
ENDBLK
0
BLOCK
2
Plane_027
8
Meshes
70
64
10
0.0
20
0.0
30
0.0
3
Plane_027
0
POLYLINE
66
1
8
Meshes
62
254
70
64
71
6
72
2
0
VERTEX
8
Meshes
10
5.611997
20
6.388427
30
0.000000
70
192
0
VERTEX
8
Meshes
10
5.000000
20
-1.000000
30
0.000000
70
192
0
VERTEX
8
Meshes
10
-1.000000
20
-1.000000
30
0.000000
70
192
0
VERTEX
8
Meshes
10
-1.000000
20
6.388428
30
0.000000
70
192
0
VERTEX
8
Meshes
10
3.888970
20
10.891766
30
-0.022534
70
192
0
VERTEX
8
Meshes
10
-1.733248
20
8.769578
30
-0.002721
70
192
0
VERTEX
8
Meshes
62
254
10
0.0
20
0.0
30
0.0
70
128
71
1
72
4
73
3
74
2
0
VERTEX
8
Meshes
62
254
10
0.0
20
0.0
30
0.0
70
128
71
4
72
1
73
5
74
6
0
SEQEND
0
ENDBLK
0
BLOCK
2
Plane_028
8
Meshes
70
64
10
0.0
20
0.0
30
0.0
3
Plane_028
0
POLYLINE
66
1
8
Meshes
62
254
70
64
71
4
72
1
0
VERTEX
8
Meshes
10
6.341656
20
-0.447550
30
6.788811
70
192
0
VERTEX
8
Meshes
10
6.487825
20
5.557254
30
6.741139
70
192
0
VERTEX
8
Meshes
10
-4.876604
20
-0.203196
30
2.505156
70
192
0
VERTEX
8
Meshes
10
-4.730564
20
5.799096
30
2.454483
70
192
0
VERTEX
8
Meshes
62
254
10
0.0
20
0.0
30
0.0
70
128
71
1
72
2
73
4
74
3
0
SEQEND
0
ENDBLK
0
BLOCK
2
Plane_029
8
Meshes
70
64
10
0.0
20
0.0
30
0.0
3
Plane_029
0
POLYLINE
66
1
8
Meshes
62
254
70
64
71
4
72
1
0
VERTEX
8
Meshes
10
6.341656
20
-0.447550
30
6.788811
70
192
0
VERTEX
8
Meshes
10
6.487825
20
5.557254
30
6.741139
70
192
0
VERTEX
8
Meshes
10
-4.876604
20
-0.203196
30
2.505156
70
192
0
VERTEX
8
Meshes
10
-4.730564
20
5.799096
30
2.454483
70
192
0
VERTEX
8
Meshes
62
254
10
0.0
20
0.0
30
0.0
70
128
71
1
72
2
73
4
74
3
0
SEQEND
0
ENDBLK
0
BLOCK
2
Plane_030
8
Meshes
70
64
10
0.0
20
0.0
30
0.0
3
Plane_030
0
POLYLINE
66
1
8
Meshes
62
254
70
64
71
4
72
1
0
VERTEX
8
Meshes
10
1.000000
20
1.000000
30
0.000000
70
192
0
VERTEX
8
Meshes
10
1.000000
20
-5.000000
30
0.000000
70
192
0
VERTEX
8
Meshes
10
-5.000000
20
-5.000000
30
0.000000
70
192
0
VERTEX
8
Meshes
10
-5.000000
20
1.000000
30
0.000000
70
192
0
VERTEX
8
Meshes
62
254
10
0.0
20
0.0
30
0.0
70
128
71
1
72
4
73
3
74
2
0
SEQEND
0
ENDBLK
0
BLOCK
2
Plane_038
8
Meshes
70
64
10
0.0
20
0.0
30
0.0
3
Plane_038
0
POLYLINE
66
1
8
Meshes
62
254
70
64
71
4
72
1
0
VERTEX
8
Meshes
10
5.000000
20
1.000000
30
0.000000
70
192
0
VERTEX
8
Meshes
10
5.000000
20
-20.228338
30
0.000000
70
192
0
VERTEX
8
Meshes
10
-1.000000
20
-23.000000
30
0.000000
70
192
0
VERTEX
8
Meshes
10
-1.000000
20
1.000000
30
0.000000
70
192
0
VERTEX
8
Meshes
62
254
10
0.0
20
0.0
30
0.0
70
128
71
1
72
4
73
3
74
2
0
SEQEND
0
ENDBLK
0
BLOCK
2
Plane_039
8
Meshes
70
64
10
0.0
20
0.0
30
0.0
3
Plane_039
0
POLYLINE
66
1
8
Meshes
62
254
70
64
71
4
72
1
0
VERTEX
8
Meshes
10
5.551826
20
1.009300
30
0.000000
70
192
0
VERTEX
8
Meshes
10
5.551826
20
-20.990700
30
0.000000
70
192
0
VERTEX
8
Meshes
10
-1.000000
20
-21.000000
30
0.000000
70
192
0
VERTEX
8
Meshes
10
-1.000000
20
1.000000
30
0.000000
70
192
0
VERTEX
8
Meshes
62
254
10
0.0
20
0.0
30
0.0
70
128
71
1
72
4
73
3
74
2
0
SEQEND
0
ENDBLK
0
BLOCK
2
Plane_041
8
Meshes
70
64
10
0.0
20
0.0
30
0.0
3
Plane_041
0
POLYLINE
66
1
8
Meshes
62
254
70
64
71
4
72
1
0
VERTEX
8
Meshes
10
25.000000
20
21.000000
30
0.000000
70
192
0
VERTEX
8
Meshes
10
25.000000
20
-1.000000
30
0.000000
70
192
0
VERTEX
8
Meshes
10
-1.000000
20
-1.000000
30
0.000000
70
192
0
VERTEX
8
Meshes
10
-1.000000
20
21.000000
30
0.000000
70
192
0
VERTEX
8
Meshes
62
254
10
0.0
20
0.0
30
0.0
70
128
71
1
72
4
73
3
74
2
0
SEQEND
0
ENDBLK
0
BLOCK
2
Plane_042
8
Meshes
70
64
10
0.0
20
0.0
30
0.0
3
Plane_042
0
POLYLINE
66
1
8
Meshes
62
254
70
64
71
4
72
1
0
VERTEX
8
Meshes
10
1.007890
20
5.000000
30
0.000000
70
192
0
VERTEX
8
Meshes
10
1.007890
20
-1.000000
30
0.000000
70
192
0
VERTEX
8
Meshes
10
-1.891665
20
-3.978703
30
0.000000
70
192
0
VERTEX
8
Meshes
10
-5.987339
20
5.000000
30
0.000000
70
192
0
VERTEX
8
Meshes
62
254
10
0.0
20
0.0
30
0.0
70
128
71
1
72
4
73
3
74
2
0
SEQEND
0
ENDBLK
0
BLOCK
2
Plane_046
8
Meshes
70
64
10
0.0
20
0.0
30
0.0
3
Plane_046
0
POLYLINE
66
1
8
Meshes
62
254
70
64
71
4
72
1
0
VERTEX
8
Meshes
10
2.000000
20
2.000000
30
0.000000
70
192
0
VERTEX
8
Meshes
10
2.000000
20
-1.000000
30
0.000000
70
192
0
VERTEX
8
Meshes
10
-1.000000
20
-1.000000
30
0.000000
70
192
0
VERTEX
8
Meshes
10
-1.000000
20
2.000000
30
0.000000
70
192
0
VERTEX
8
Meshes
62
254
10
0.0
20
0.0
30
0.0
70
128
71
1
72
4
73
3
74
2
0
SEQEND
0
ENDBLK
0
BLOCK
2
Plane_055
8
Meshes
70
64
10
0.0
20
0.0
30
0.0
3
Plane_055
0
POLYLINE
66
1
8
Meshes
62
254
70
64
71
5
72
3
0
VERTEX
8
Meshes
10
27.284769
20
20.450687
30
0.000000
70
192
0
VERTEX
8
Meshes
10
21.942572
20
-1.021778
30
0.000000
70
192
0
VERTEX
8
Meshes
10
-1.000000
20
-1.000000
30
0.000000
70
192
0
VERTEX
8
Meshes
10
-1.000000
20
21.000000
30
0.000000
70
192
0
VERTEX
8
Meshes
10
27.316740
20
14.785889
30
0.000000
70
192
0
VERTEX
8
Meshes
62
254
10
0.0
20
0.0
30
0.0
70
128
71
5
72
4
73
3
0
VERTEX
8
Meshes
62
254
10
0.0
20
0.0
30
0.0
70
128
71
2
72
5
73
3
0
VERTEX
8
Meshes
62
254
10
0.0
20
0.0
30
0.0
70
128
71
5
72
1
73
4
0
SEQEND
0
ENDBLK
0
BLOCK
2
Plane_056
8
Meshes
70
64
10
0.0
20
0.0
30
0.0
3
Plane_056
0
POLYLINE
66
1
8
Meshes
62
254
70
64
71
4
72
1
0
VERTEX
8
Meshes
10
21.885201
20
20.947821
30
0.000000
70
192
0
VERTEX
8
Meshes
10
14.166833
20
-0.956974
30
0.000006
70
192
0
VERTEX
8
Meshes
10
-1.000000
20
-1.000000
30
0.000000
70
192
0
VERTEX
8
Meshes
10
-1.000000
20
21.000000
30
0.000000
70
192
0
VERTEX
8
Meshes
62
254
10
0.0
20
0.0
30
0.0
70
128
71
1
72
4
73
3
74
2
0
SEQEND
0
ENDBLK
0
BLOCK
2
Plane_057
8
Meshes
70
64
10
0.0
20
0.0
30
0.0
3
Plane_057
0
POLYLINE
66
1
8
Meshes
62
254
70
64
71
4
72
1
0
VERTEX
8
Meshes
10
25.000000
20
21.000000
30
0.000000
70
192
0
VERTEX
8
Meshes
10
25.000000
20
-1.000000
30
0.000000
70
192
0
VERTEX
8
Meshes
10
-5.894054
20
-0.950873
30
-0.000056
70
192
0
VERTEX
8
Meshes
10
-5.894054
20
21.049126
30
-0.000056
70
192
0
VERTEX
8
Meshes
62
254
10
0.0
20
0.0
30
0.0
70
128
71
1
72
4
73
3
74
2
0
SEQEND
0
ENDBLK
0
BLOCK
2
Plane_058
8
Meshes
70
64
10
0.0
20
0.0
30
0.0
3
Plane_058
0
POLYLINE
66
1
8
Meshes
62
254
70
64
71
4
72
1
0
VERTEX
8
Meshes
10
5.125130
20
20.856295
30
0.000051
70
192
0
VERTEX
8
Meshes
10
5.125130
20
-1.143705
30
0.000051
70
192
0
VERTEX
8
Meshes
10
-5.894054
20
-0.950873
30
-0.000056
70
192
0
VERTEX
8
Meshes
10
-5.894054
20
21.049126
30
-0.000056
70
192
0
VERTEX
8
Meshes
62
254
10
0.0
20
0.0
30
0.0
70
128
71
1
72
4
73
3
74
2
0
SEQEND
0
ENDBLK
0
BLOCK
2
Plane_059
8
Meshes
70
64
10
0.0
20
0.0
30
0.0
3
Plane_059
0
POLYLINE
66
1
8
Meshes
62
254
70
64
71
4
72
1
0
VERTEX
8
Meshes
10
2.525972
20
-0.365008
30
5.527575
70
192
0
VERTEX
8
Meshes
10
2.672116
20
5.639829
30
5.484101
70
192
0
VERTEX
8
Meshes
10
-4.876398
20
-0.203476
30
2.469667
70
192
0
VERTEX
8
Meshes
10
-4.730357
20
5.798816
30
2.418994
70
192
0
VERTEX
8
Meshes
62
254
10
0.0
20
0.0
30
0.0
70
128
71
1
72
2
73
4
74
3
0
SEQEND
0
ENDBLK
0
BLOCK
2
Plane_060
8
Meshes
70
64
10
0.0
20
0.0
30
0.0
3
Plane_060
0
POLYLINE
66
1
8
Meshes
62
254
70
64
71
4
72
1
0
VERTEX
8
Meshes
10
2.511840
20
-0.353550
30
5.608671
70
192
0
VERTEX
8
Meshes
10
2.671354
20
5.645944
30
5.565316
70
192
0
VERTEX
8
Meshes
10
-2.608681
20
-0.238581
30
2.483147
70
192
0
VERTEX
8
Meshes
10
-2.452148
20
5.760146
30
2.432563
70
192
0
VERTEX
8
Meshes
62
254
10
0.0
20
0.0
30
0.0
70
128
71
1
72
2
73
4
74
3
0
SEQEND
0
ENDBLK
0
BLOCK
2
Plane_061
8
Meshes
70
64
10
0.0
20
0.0
30
0.0
3
Plane_061
0
POLYLINE
66
1
8
Meshes
62
254
70
64
71
4
72
1
0
VERTEX
8
Meshes
10
2.486932
20
-0.352793
30
5.620950
70
192
0
VERTEX
8
Meshes
10
2.646445
20
5.646701
30
5.577595
70
192
0
VERTEX
8
Meshes
10
-2.414137
20
-0.245900
30
2.205397
70
192
0
VERTEX
8
Meshes
10
-2.257604
20
5.752827
30
2.154813
70
192
0
VERTEX
8
Meshes
62
254
10
0.0
20
0.0
30
0.0
70
128
71
1
72
2
73
4
74
3
0
SEQEND
0
ENDBLK
0
BLOCK
2
Plane_062
8
Meshes
70
64
10
0.0
20
0.0
30
0.0
3
Plane_062
0
POLYLINE
66
1
8
Meshes
62
254
70
64
71
4
72
1
0
VERTEX
8
Meshes
10
17.445171
20
-0.752365
30
5.711194
70
192
0
VERTEX
8
Meshes
10
17.604685
20
5.247129
30
5.667839
70
192
0
VERTEX
8
Meshes
10
-2.378618
20
-0.294028
30
-3.895104
70
192
0
VERTEX
8
Meshes
10
-2.222085
20
5.704699
30
-3.945688
70
192
0
VERTEX
8
Meshes
62
254
10
0.0
20
0.0
30
0.0
70
128
71
1
72
2
73
4
74
3
0
SEQEND
0
ENDBLK
0
BLOCK
2
Plane_063
8
Meshes
70
64
10
0.0
20
0.0
30
0.0
3
Plane_063
0
POLYLINE
66
1
8
Meshes
62
254
70
64
71
4
72
1
0
VERTEX
8
Meshes
10
17.833969
20
-6.784918
30
5.761049
70
192
0
VERTEX
8
Meshes
10
18.149075
20
5.219827
30
5.671224
70
192
0
VERTEX
8
Meshes
10
-2.492188
20
-6.333503
30
-6.945133
70
192
0
VERTEX
8
Meshes
10
-2.162422
20
5.678091
30
-7.016832
70
192
0
VERTEX
8
Meshes
62
254
10
0.0
20
0.0
30
0.0
70
128
71
1
72
2
73
4
74
3
0
SEQEND
0
ENDBLK
0
ENDSEC
0
SECTION
2
ENTITIES
0
INSERT
8
1
2
Plane
10
0.000000
20
1.000000
30
0.000000
41
1.000000
42
1.000000
43
1.000000
50
0.000000
0
INSERT
8
1
2
Plane_001
10
0.000000
20
19.000000
30
0.000000
41
1.000000
42
1.000000
43
1.000000
50
0.000000
0
INSERT
8
1
2
Plane_002
10
1.000000
20
5.000000
30
0.000000
41
1.000000
42
1.000000
43
1.000000
50
0.000000
0
INSERT
8
1
2
Plane_005
10
20.247387
20
-4.005305
30
4.216469
41
1.000000
42
1.000000
43
1.000000
50
0.000000
0
INSERT
8
1
2
Plane_012
10
4.823190
20
7.000000
30
7.224800
41
1.000000
42
1.000000
43
1.000000
50
0.000000
0
INSERT
8
1
2
Plane_014
10
6.825030
20
7.000000
30
7.229077
41
1.000000
42
1.000000
43
1.000000
50
0.000000
0
INSERT
8
1
2
Plane_016
10
4.823936
20
24.142071
30
10.324673
41
1.000000
42
1.000000
43
1.000000
50
0.000000
0
INSERT
8
1
2
Plane_021
10
1.000000
20
31.000000
30
0.000000
41
1.000000
42
1.000000
43
1.000000
50
0.000000
0
INSERT
8
1
2
Plane_022
10
16.242670
20
27.000000
30
4.232097
41
1.000000
42
1.000000
43
1.000000
50
0.000000
0
INSERT
8
1
2
Plane_023
10
15.822122
20
33.290649
30
4.230319
41
1.000000
42
1.000000
43
1.000000
50
20.647882
0
INSERT
8
1
2
Plane_026
10
9.740005
20
60.782551
30
13.691089
41
1.000000
42
1.000000
43
1.000000
50
20.603363
0
INSERT
8
1
2
Plane_027
10
0.828278
20
49.069805
30
13.717311
41
1.000000
42
1.000000
43
1.000000
50
0.000000
0
INSERT
8
1
2
Plane_030
10
-146.984390
20
30.959263
30
7.603726
41
1.000000
42
1.000000
43
1.000000
50
0.000000
0
INSERT
8
1
2
Plane_038
10
-160.093674
20
30.944084
30
10.125597
41
1.000000
42
1.000000
43
1.000000
50
0.000000
0
INSERT
8
1
2
Plane_039
10
-158.462494
20
4.667211
30
7.603886
41
1.000000
42
1.000000
43
1.000000
50
24.548381
0
INSERT
8
1
2
Plane_041
10
-149.314713
20
-15.344060
30
7.600613
41
1.000000
42
-1.000000
43
1.000000
50
24.771489
0
INSERT
8
1
2
Plane_042
10
-147.000000
20
1.000000
30
7.608012
41
1.000000
42
1.000000
43
1.000000
50
0.000000
0
INSERT
8
1
2
Plane_046
10
-115.379372
20
-0.822271
30
16.359791
41
1.000000
42
1.000000
43
1.000000
50
24.857338
0
INSERT
8
1
2
Plane_055
10
-103.388771
20
5.876586
30
25.115185
41
1.000000
42
-1.000000
43
1.000000
50
24.771489
0
INSERT
8
1
2
Plane_056
10
-112.525757
20
25.770767
30
25.099699
41
1.000000
42
-1.000000
43
1.000000
50
24.771489
0
INSERT
8
1
2
Plane_057
10
-136.125381
20
14.920208
30
25.125429
41
1.000000
42
-1.000000
43
1.000000
50
24.771489
0
INSERT
8
1
2
Plane_058
10
-126.853508
20
-5.036866
30
25.125444
41
1.000000
42
-1.000000
43
1.000000
50
24.771489
0
INSERT
8
1
2
Plane_008
10
-113.760269
20
-17.075527
30
6.231955
41
1.000000
42
1.000000
43
1.000000
50
26.223774
0
INSERT
8
1
2
Plane_004
10
-116.788429
20
-10.553331
30
6.231955
41
1.000000
42
1.000000
43
1.000000
50
26.223774
0
INSERT
8
1
2
Plane_009
10
-119.894234
20
-3.720555
30
6.231955
41
1.000000
42
1.000000
43
1.000000
50
26.223774
0
INSERT
8
1
2
Plane_010
10
-107.464745
20
2.002053
30
14.998173
41
1.000000
42
1.000000
43
1.000000
50
26.223774
0
INSERT
8
1
2
Plane_011
10
-141.615479
20
31.635956
30
-2.527283
41
1.000000
42
1.000000
43
1.000000
50
-178.487528
0
INSERT
8
1
2
Plane_013
10
-141.615479
20
5.671381
30
-2.527283
41
1.000000
42
1.000000
43
1.000000
50
-178.487528
0
INSERT
8
1
2
Plane_018
10
-150.714355
20
31.635956
30
-0.083575
41
1.000000
42
1.000000
43
1.000000
50
-178.487528
0
INSERT
8
1
2
Plane_025
10
-153.598389
20
6.516933
30
-0.083575
41
1.000000
42
1.000000
43
1.000000
50
-244.040692
0
INSERT
8
1
2
Plane_028
10
8.857073
20
0.339822
30
-2.527283
41
1.000000
42
1.000000
43
1.000000
50
1.394582
0
INSERT
8
1
2
Plane_029
10
8.857073
20
26.350479
30
-2.527283
41
1.000000
42
1.000000
43
1.000000
50
1.394582
0
INSERT
8
1
2
Plane_059
10
10.391068
20
11.649829
30
1.717984
41
1.000000
42
1.000000
43
1.000000
50
-178.614105
0
INSERT
8
1
2
Plane_060
10
5.496570
20
20.587166
30
4.730571
41
1.000000
42
1.000000
43
1.000000
50
-268.477442
0
INSERT
8
1
2
Plane_061
10
5.496570
20
45.535397
30
8.113419
41
1.000000
42
1.000000
43
1.000000
50
-268.477442
0
INSERT
8
1
2
Plane_062
10
18.299810
20
39.983559
30
8.113419
41
1.000000
42
1.000000
43
1.000000
50
-247.791422
0
INSERT
8
1
2
Plane_063
10
3.563343
20
62.043819
30
20.674484
41
1.000000
42
1.000000
43
1.000000
50
-247.791422
0
ENDSEC
0
EOF
